<svg xmlns="http://www.w3.org/2000/svg" xmlns:xlink="http://www.w3.org/1999/xlink"><defs>
        <circle id="path-1" cx="23" cy="23" r="23"/>
    <circle id="a" cx="23" cy="23" r="23"/></defs><symbol id="bag" viewBox="0 0 26 17">
    <!-- Generator: Sketch 45.2 (43514) - http://www.bohemiancoding.com/sketch -->
    <title>bag</title>
    <desc>Created with Sketch.</desc>
    
    <g id="Page-2" stroke="none" stroke-width="1" fill="none" fill-rule="evenodd">
        <g id="bag" transform="translate(1.000000, 1.000000)">
            <path d="M12.5263158,9.93214286 L12.5263158,6.25 L12.5263158,9.93214286 Z" id="Fill-1" fill="#FFFFFF"/>
            <path d="M12.5263158,9.93303571 L12.5263158,6.25" id="Stroke-2" stroke="#393939" stroke-width="1.8" stroke-linecap="round"/>
            <path d="M16.1052632,9.93303571 L17.1494211,6.25" id="Fill-3" fill="#FFFFFF"/>
            <path d="M16.1052632,9.93303571 L17.1494211,6.25" id="Stroke-4" stroke="#393939" stroke-width="1.8" stroke-linecap="round"/>
            <path d="M8.20205263,9.93303571 L7.15789474,6.25" id="Fill-6" fill="#FFFFFF"/>
            <path d="M8.20205263,9.93303571 L7.15789474,6.25" id="Stroke-7" stroke="#393939" stroke-width="1.8" stroke-linecap="round"/>
            <path d="M14.3157895,1.78571429 L20.0465789,1.78571429" id="Stroke-9" stroke="#393939" stroke-width="1.8" stroke-linecap="round" stroke-linejoin="round"/>
            <path d="M22.291027,1.78571429 L23.0327639,1.78571429 C23.6411849,1.78571429 24.0724481,2.37857143 23.8827639,2.95625 L20.5686586,13.0758929 C20.3288691,13.8098214 19.6417112,14.30625 18.8677639,14.30625 L5.06018491,14.30625 C4.28623754,14.30625 3.59907965,13.8098214 3.35929017,13.0758929 L0.0451849098,2.95625 C-0.144499301,2.37857143 0.286763857,1.78571429 0.89518491,1.78571429 L7.71397438,1.78571429" id="Stroke-11" stroke="#393939" stroke-width="1.8" stroke-linecap="round" stroke-linejoin="round"/>
            <path d="M10.7368421,1.60803571 C10.7368421,0.719642857 11.4588947,0 12.3482632,0 C13.2376316,0 13.9596842,0.719642857 13.9596842,1.60803571 C13.9596842,2.49642857 13.2376316,3.21607143 12.3482632,3.21607143 C11.4588947,3.21607143 10.7368421,2.49642857 10.7368421,1.60803571 Z" id="Stroke-13" stroke="#393939" stroke-width="1.8" stroke-linecap="round"/>
        </g>
    </g>
</symbol><symbol id="close_15-14" viewBox="0 0 18 17">
    <!-- Generator: Sketch 45.2 (43514) - http://www.bohemiancoding.com/sketch -->
    <title>close_15-14</title>
    <desc>Created with Sketch.</desc>
    
    <g id="Page-2" stroke="none" stroke-width="1" fill="none" fill-rule="evenodd" stroke-linecap="square">
        <g id="close_15-14" transform="translate(2.000000, 2.000000)" stroke="#393939" stroke-width="1.7">
            <path d="M0,13.1993266 L14.1421356,0" id="Line-5"/>
            <path d="M0,13.1993266 L14.1421356,0" id="Line-5" transform="translate(7.071068, 6.599663) scale(-1, 1) translate(-7.071068, -6.599663) "/>
        </g>
    </g>
</symbol><symbol id="farmer_not" viewBox="0 0 48 48">
    <!-- Generator: Sketch 45.2 (43514) - http://www.bohemiancoding.com/sketch -->
    <title>Group 3 Copy 8</title>
    <desc>Created with Sketch.</desc>
    
    <g id="Page-1" stroke="none" stroke-width="1" fill="none" fill-rule="evenodd" opacity="0.400000006">
        <g id="FirmaFerma_search_mobile" transform="translate(-239.000000, -279.000000)">
            <g id="Group-3-Copy-8" transform="translate(240.000000, 280.000000)">
                <g id="Group-16">
                    <mask id="mask-2" fill="white">
                        <use xlink:href="#path-1"/>
                    </mask>
                    <use id="Oval-2-Copy" stroke="#393939" stroke-width="1.5" stroke-linecap="round" stroke-linejoin="round" xlink:href="#path-1"/>
                    <g id="Page-1" mask="url(#mask-2)">
                        <g transform="translate(8.000000, 6.000000)">
                            <path d="M18.3789737,13.4556296 C18.9835907,13.4556296 19.4736842,14.1007087 19.4736842,14.8951039 C19.4736842,15.690338 18.9835907,16.3345783 18.3789737,16.3345783 C17.7743566,16.3345783 17.2842632,15.690338 17.2842632,14.8951039 C17.2842632,14.1007087 17.7743566,13.4556296 18.3789737,13.4556296" id="Fill-3" stroke="none" fill="#000000" fill-rule="evenodd"/>
                            <path d="M11.6210263,13.3695652 C12.2256434,13.3695652 12.7157368,14.0146443 12.7157368,14.8090396 C12.7157368,15.6042736 12.2256434,16.2485139 11.6210263,16.2485139 C11.0164093,16.2485139 10.5263158,15.6042736 10.5263158,14.8090396 C10.5263158,14.0146443 11.0164093,13.3695652 11.6210263,13.3695652" id="Fill-3" stroke="none" fill="#000000" fill-rule="evenodd"/>
                            <path d="M25.9164158,14.8053674 C25.9164158,21.4856935 21.0848368,26.9012587 15.1241,26.9012587 C9.16425789,26.9012587 4.33357368,21.4856935 4.33357368,14.8053674" id="Stroke-5" stroke="#070505" stroke-width="1.5" fill="none" stroke-linecap="round"/>
                            <path d="M25.8902,14.8053674 L25.8902,12.2054326 C25.8902,5.52421522 21.0595158,0.695128261 15.0987789,0.695128261 C9.13893684,0.695128261 4.30825263,5.52421522 4.30825263,12.2054326 L4.30825263,14.8053674" id="Stroke-7" stroke="#070505" stroke-width="1.5" fill="none" stroke-linecap="round"/>
                            <path d="M0.5,11 L30,11" id="Stroke-9" stroke="#070505" stroke-width="1.5" fill="none" stroke-linecap="round"/>
                            <path d="M14.9907842,21.2116174 C14.9907842,21.2116174 15.0015211,19.2427261 13.1413632,19.2427261 C11.5281526,19.2427261 10.8159421,20.853313 8.60057368,20.3577478" id="Stroke-11" stroke="#070505" stroke-width="1.5" fill="none" stroke-linecap="round" stroke-linejoin="round"/>
                            <path d="M14.9907842,21.2116174 C14.9907842,21.2116174 15.0015211,22.7749652 13.1413632,22.7749652 C11.7312579,22.7749652 10.3739421,22.5147043 8.60057368,20.3577478" id="Stroke-13" stroke="#070505" stroke-width="1.5" fill="none" stroke-linecap="round" stroke-linejoin="round"/>
                            <path d="M14.9907842,21.2116174 C14.9907842,21.2116174 14.9800474,19.2427261 16.8411,19.2427261 C18.4534158,19.2427261 19.1665211,20.853313 21.3818895,20.3577478" id="Stroke-15" stroke="#070505" stroke-width="1.5" fill="none" stroke-linecap="round" stroke-linejoin="round"/>
                            <path d="M14.9907842,21.2116174 C14.9907842,21.2116174 14.9800474,22.7749652 16.8411,22.7749652 C18.2512053,22.7749652 19.6076263,22.5147043 21.3818895,20.3577478" id="Stroke-17" stroke="#070505" stroke-width="1.5" fill="none" stroke-linecap="round" stroke-linejoin="round"/>
                            <path d="M12.6648263,26.5842217 C12.1771947,26.7366348 11.5965105,26.9639174 10.9630368,27.2527 C7.5693,28.801787 2.67687895,32.122787 2.67687895,35.197787 L2.67687895,40.7452652" id="Stroke-19" stroke="#070505" stroke-width="1.5" fill="none" stroke-linecap="round"/>
                            <path d="M17.4828053,26.5842217 C17.9704368,26.7366348 18.5511211,26.9639174 19.1845947,27.2527 C22.5783316,28.801787 27.4707526,32.122787 27.4707526,35.197787 L27.4707526,40.7452652" id="Stroke-21" stroke="#070505" stroke-width="1.5" fill="none" stroke-linecap="round"/>
                            <path d="M19.1848632,27.2527 L16.6831789,30.7635478 C15.8967053,31.8678739 14.2503895,31.8678739 13.4639158,30.7635478 L10.9631263,27.2527" id="Stroke-23" stroke="#070505" stroke-width="1.5" fill="none" stroke-linecap="round"/>
                            <path d="M23.6062053,29.8622609 L20.5522053,40.1477391 C20.3965211,41.0782609 19.5885737,41.7601087 18.6419421,41.7601087 L11.5060474,41.7601087 C10.5594158,41.7601087 9.75057368,41.0782609 9.59488947,40.1477391 L6.54178421,29.8622609" id="Stroke-25" stroke="#070505" stroke-width="1.5" fill="none" stroke-linecap="round"/>
                        </g>
                    </g>
                </g>
            </g>
        </g>
    </g>
</symbol><symbol id="fish_icon" viewBox="0 0 22 12"><g fill="none" fill-rule="evenodd"><path stroke="#393939" stroke-width="1.5" d="M15.154 5.788s.275 2.28 1.75 3.13c1.474.848 3.592-.055 3.592-.055S20.28 7.067 19.2 6.07M1 5.788S3.587 1 8.027 1c4.44 0 7.127 4.788 7.127 4.788s-2.688 4.788-7.127 4.788C3.587 10.576 1 5.788 1 5.788z" stroke-linecap="round" stroke-linejoin="round"/><path stroke="#393939" stroke-width="1.5" d="M7.066 1.655s1.13 1.61 1.13 4.133c0 2.524-1.13 4.133-1.13 4.133M15.154 5.788s.275-2.28 1.75-3.128c1.474-.85 3.592.053 3.592.053s-.274 2.28-1.75 3.13c-1.475.848-3.592-.055-3.592-.055z" stroke-linecap="round" stroke-linejoin="round"/><path fill="#393939" d="M4.195 5.498c0-.426.346-.772.773-.772.427 0 .773.346.773.772 0 .426-.345.772-.772.772-.427 0-.773-.346-.773-.772"/></g></symbol><symbol id="meat_icon" viewBox="0 0 25 22"><g fill="none" fill-rule="evenodd"><path stroke="#393939" stroke-width="1.33" d="M16.93 11.536l2.065.004c-.007.065-.02.128-.02.194-.003.953.776 1.726 1.738 1.728.963.002 1.744-.768 1.746-1.72 0-.506-.223-.958-.574-1.274.353-.314.577-.764.578-1.27.002-.953-.777-1.727-1.74-1.73-.962 0-1.743.77-1.745 1.723 0 .067.013.13.02.195l-2.095-.005M5.41 4.666l5.29.01c3.318.006 6.003 2.674 5.997 5.958-.007 3.285-2.703 5.942-6.022 5.935l-5.288-.01" stroke-linecap="round" stroke-linejoin="round"/><path stroke="#393939" stroke-width="1.33" d="M9.245 10.622C9.252 7.337 7.56 4.67 5.47 4.667c-2.09-.004-3.79 2.655-3.797 5.94-.007 3.284 1.682 5.95 3.774 5.954 2.09.005 3.79-2.654 3.798-5.938z" stroke-linecap="round" stroke-linejoin="round"/><path fill="#393939" d="M5.28 10.168l-.002.89"/><path stroke="#393939" stroke-width="1.33" d="M5.28 10.168l-.002.89" stroke-linecap="round" stroke-linejoin="round"/></g></symbol><symbol id="search" viewBox="0 0 17 18">
    <!-- Generator: Sketch 45.2 (43514) - http://www.bohemiancoding.com/sketch -->
    <title>search</title>
    <desc>Created with Sketch.</desc>
    
    <g id="Page-2" stroke="none" stroke-width="1" fill="none" fill-rule="evenodd">
        <path d="M6.32661829,12.6392767 L1.70291052,17.2085879 C1.31008231,17.5967946 0.676928418,17.5930481 0.288721717,17.2002199 C-0.0994849843,16.8073917 -0.0957385116,16.1742378 0.297089698,15.7860311 L4.67338815,11.4612185 C3.4215123,10.2482529 2.64420741,8.55670347 2.64420741,6.68421053 C2.64420741,2.98995655 5.66975868,0 9.39608711,0 C13.1224155,0 16.1479668,2.98995655 16.1479668,6.68421053 C16.1479668,10.3784645 13.1224155,13.3684211 9.39608711,13.3684211 C8.29110362,13.3684211 7.2477412,13.1055068 6.32661829,12.6392767 Z M9.39608711,11.3684211 C12.0231096,11.3684211 14.1479668,9.26856213 14.1479668,6.68421053 C14.1479668,4.09985892 12.0231096,2 9.39608711,2 C6.76906465,2 4.64420741,4.09985892 4.64420741,6.68421053 C4.64420741,9.26856213 6.76906465,11.3684211 9.39608711,11.3684211 Z" id="search" fill="#393939" fill-rule="nonzero"/>
    </g>
</symbol><symbol id="symbols"><symbol id="bag" viewBox="0 0 26 17"><title>bag</title><g fill="none" fill-rule="evenodd"><path d="M13.526 10.932V7.25v3.682z" fill="#FFF"/><path d="M13.526 10.933V7.25" stroke="#393939" stroke-width="1.8" stroke-linecap="round"/><path d="M17.105 10.933L18.15 7.25" fill="#FFF"/><path d="M17.105 10.933L18.15 7.25" stroke="#393939" stroke-width="1.8" stroke-linecap="round"/><path d="M9.202 10.933L8.158 7.25" fill="#FFF"/><path d="M9.202 10.933L8.158 7.25" stroke="#393939" stroke-width="1.8" stroke-linecap="round"/><path d="M15.316 2.786h5.73M23.291 2.786h.742c.608 0 1.04.593.85 1.17l-3.314 10.12a1.788 1.788 0 0 1-1.701 1.23H6.06a1.788 1.788 0 0 1-1.7-1.23L1.044 3.956a.893.893 0 0 1 .85-1.17h6.819" stroke="#393939" stroke-width="1.8" stroke-linecap="round" stroke-linejoin="round"/><path d="M11.737 2.608A1.61 1.61 0 0 1 13.348 1c.89 0 1.612.72 1.612 1.608a1.61 1.61 0 0 1-1.612 1.608 1.61 1.61 0 0 1-1.611-1.608z" stroke="#393939" stroke-width="1.8" stroke-linecap="round"/></g></symbol><symbol id="close_15-14" viewBox="0 0 18 17"><title>close_15-14</title><g stroke="#393939" stroke-width="1.7" fill="none" fill-rule="evenodd" stroke-linecap="square"><path d="M2 15.2L16.142 2M16.142 15.2L2 2"/></g></symbol><symbol id="farmer_not" viewBox="0 0 48 48"><title>Group 3 Copy 8</title><g transform="translate(1 1)" fill="none" fill-rule="evenodd" opacity=".4"><mask id="b" fill="#fff"><use xlink:href="#a"/></mask><use stroke="#393939" stroke-width="1.5" stroke-linecap="round" stroke-linejoin="round" xlink:href="#a"/><g mask="url(#b)"><path d="M26.379 19.456c.605 0 1.095.645 1.095 1.44 0 .794-.49 1.439-1.095 1.439s-1.095-.645-1.095-1.44c0-.794.49-1.44 1.095-1.44M19.621 19.37c.605 0 1.095.645 1.095 1.439 0 .795-.49 1.44-1.095 1.44s-1.095-.645-1.095-1.44c0-.794.49-1.44 1.095-1.44" fill="#000"/><path d="M33.916 20.805c0 6.68-4.831 12.096-10.792 12.096-5.96 0-10.79-5.415-10.79-12.096" stroke="#070505" stroke-width="1.5" stroke-linecap="round"/><path d="M33.89 20.805v-2.6c0-6.68-4.83-11.51-10.791-11.51-5.96 0-10.79 4.83-10.79 11.51v2.6M8.5 17H38" stroke="#070505" stroke-width="1.5" stroke-linecap="round"/><path d="M22.99 27.212s.012-1.97-1.849-1.97c-1.613 0-2.325 1.611-4.54 1.116" stroke="#070505" stroke-width="1.5" stroke-linecap="round" stroke-linejoin="round"/><path d="M22.99 27.212s.012 1.563-1.849 1.563c-1.41 0-2.767-.26-4.54-2.417M22.99 27.212s-.01-1.97 1.851-1.97c1.612 0 2.326 1.611 4.54 1.116" stroke="#070505" stroke-width="1.5" stroke-linecap="round" stroke-linejoin="round"/><path d="M22.99 27.212s-.01 1.563 1.851 1.563c1.41 0 2.767-.26 4.54-2.417" stroke="#070505" stroke-width="1.5" stroke-linecap="round" stroke-linejoin="round"/><path d="M20.665 32.584c-.488.153-1.068.38-1.702.669-3.394 1.549-8.286 4.87-8.286 7.945v5.547M25.483 32.584c.487.153 1.068.38 1.702.669 3.393 1.549 8.286 4.87 8.286 7.945v5.547" stroke="#070505" stroke-width="1.5" stroke-linecap="round"/><path d="M27.185 33.253l-2.502 3.51a1.978 1.978 0 0 1-3.22 0l-2.5-3.51" stroke="#070505" stroke-width="1.5" stroke-linecap="round"/><path d="M31.606 35.862l-3.054 10.286a1.935 1.935 0 0 1-1.91 1.612h-7.136a1.936 1.936 0 0 1-1.911-1.612l-3.053-10.286" stroke="#070505" stroke-width="1.5" stroke-linecap="round"/></g></g></symbol><symbol id="fish_icon" viewBox="0 0 22 12"><g fill="none" fill-rule="evenodd"><path stroke="#393939" stroke-width="1.5" d="M15.154 5.788s.275 2.28 1.75 3.13c1.474.848 3.592-.055 3.592-.055S20.28 7.067 19.2 6.07M1 5.788S3.587 1 8.027 1c4.44 0 7.127 4.788 7.127 4.788s-2.688 4.788-7.127 4.788C3.587 10.576 1 5.788 1 5.788z" stroke-linecap="round" stroke-linejoin="round"/><path stroke="#393939" stroke-width="1.5" d="M7.066 1.655s1.13 1.61 1.13 4.133c0 2.524-1.13 4.133-1.13 4.133m8.088-4.133s.275-2.28 1.75-3.128c1.474-.85 3.592.053 3.592.053s-.274 2.28-1.75 3.13c-1.475.848-3.592-.055-3.592-.055z" stroke-linecap="round" stroke-linejoin="round"/><path fill="#393939" d="M4.195 5.498a.773.773 0 1 1 1.543.001.773.773 0 0 1-1.542-.001"/></g></symbol><symbol id="meat_icon" viewBox="0 0 25 22"><g fill="none" fill-rule="evenodd"><path stroke="#393939" stroke-width="1.33" d="M16.93 11.536l2.065.004c-.007.065-.02.128-.02.194a1.732 1.732 0 0 0 1.738 1.728 1.733 1.733 0 0 0 1.746-1.72 1.71 1.71 0 0 0-.574-1.274c.353-.314.577-.764.578-1.27a1.736 1.736 0 0 0-1.74-1.73c-.962 0-1.743.77-1.745 1.723 0 .067.013.13.02.195l-2.095-.005M5.41 4.666l5.29.01c3.318.006 6.003 2.674 5.997 5.958-.007 3.285-2.703 5.942-6.022 5.935l-5.288-.01" stroke-linecap="round" stroke-linejoin="round"/><path stroke="#393939" stroke-width="1.33" d="M9.245 10.622C9.252 7.337 7.56 4.67 5.47 4.667c-2.09-.004-3.79 2.655-3.797 5.94-.007 3.284 1.682 5.95 3.774 5.954 2.09.005 3.79-2.654 3.798-5.938z" stroke-linecap="round" stroke-linejoin="round"/><path fill="#393939" d="M5.28 10.168l-.002.89"/><path stroke="#393939" stroke-width="1.33" d="M5.28 10.168l-.002.89" stroke-linecap="round" stroke-linejoin="round"/></g></symbol><symbol id="search" viewBox="0 0 17 18"><title>search</title><path d="M6.327 12.64l-4.624 4.569a1 1 0 0 1-1.406-1.423l4.376-4.325a6.63 6.63 0 0 1-2.029-4.777C2.644 2.99 5.67 0 9.396 0s6.752 2.99 6.752 6.684-3.026 6.684-6.752 6.684a6.779 6.779 0 0 1-3.07-.729zm3.07-1.272c2.626 0 4.751-2.1 4.751-4.684S12.023 2 9.396 2 4.644 4.1 4.644 6.684c0 2.585 2.125 4.684 4.752 4.684z" fill="#393939" fill-rule="nonzero"/></symbol></symbol></svg>