<svg xmlns="http://www.w3.org/2000/svg" xmlns:xlink="http://www.w3.org/1999/xlink"><defs><circle id="a" cx="23" cy="23" r="23"/></defs><symbol id="bag" viewBox="0 0 26 17"><title>bag</title><g fill="none" fill-rule="evenodd"><path d="M13.526 10.932V7.25v3.682z" fill="#FFF"/><path d="M13.526 10.933V7.25" stroke="#393939" stroke-width="1.8" stroke-linecap="round"/><path d="M17.105 10.933L18.15 7.25" fill="#FFF"/><path d="M17.105 10.933L18.15 7.25" stroke="#393939" stroke-width="1.8" stroke-linecap="round"/><path d="M9.202 10.933L8.158 7.25" fill="#FFF"/><path d="M9.202 10.933L8.158 7.25" stroke="#393939" stroke-width="1.8" stroke-linecap="round"/><path d="M15.316 2.786h5.73M23.291 2.786h.742c.608 0 1.04.593.85 1.17l-3.314 10.12a1.788 1.788 0 0 1-1.701 1.23H6.06a1.788 1.788 0 0 1-1.7-1.23L1.044 3.956a.893.893 0 0 1 .85-1.17h6.819" stroke="#393939" stroke-width="1.8" stroke-linecap="round" stroke-linejoin="round"/><path d="M11.737 2.608A1.61 1.61 0 0 1 13.348 1c.89 0 1.612.72 1.612 1.608a1.61 1.61 0 0 1-1.612 1.608 1.61 1.61 0 0 1-1.611-1.608z" stroke="#393939" stroke-width="1.8" stroke-linecap="round"/></g></symbol><symbol id="close_15-14" viewBox="0 0 18 17"><title>close_15-14</title><g stroke="#393939" stroke-width="1.7" fill="none" fill-rule="evenodd" stroke-linecap="square"><path d="M2 15.2L16.142 2M16.142 15.2L2 2"/></g></symbol><symbol id="farmer_not" viewBox="0 0 48 48"><title>Group 3 Copy 8</title><g transform="translate(1 1)" fill="none" fill-rule="evenodd" opacity=".4"><mask id="b" fill="#fff"><use xlink:href="#a"/></mask><use stroke="#393939" stroke-width="1.5" stroke-linecap="round" stroke-linejoin="round" xlink:href="#a"/><g mask="url(#b)"><path d="M26.379 19.456c.605 0 1.095.645 1.095 1.44 0 .794-.49 1.439-1.095 1.439s-1.095-.645-1.095-1.44c0-.794.49-1.44 1.095-1.44M19.621 19.37c.605 0 1.095.645 1.095 1.439 0 .795-.49 1.44-1.095 1.44s-1.095-.645-1.095-1.44c0-.794.49-1.44 1.095-1.44" fill="#000"/><path d="M33.916 20.805c0 6.68-4.831 12.096-10.792 12.096-5.96 0-10.79-5.415-10.79-12.096" stroke="#070505" stroke-width="1.5" stroke-linecap="round"/><path d="M33.89 20.805v-2.6c0-6.68-4.83-11.51-10.791-11.51-5.96 0-10.79 4.83-10.79 11.51v2.6M8.5 17H38" stroke="#070505" stroke-width="1.5" stroke-linecap="round"/><path d="M22.99 27.212s.012-1.97-1.849-1.97c-1.613 0-2.325 1.611-4.54 1.116" stroke="#070505" stroke-width="1.5" stroke-linecap="round" stroke-linejoin="round"/><path d="M22.99 27.212s.012 1.563-1.849 1.563c-1.41 0-2.767-.26-4.54-2.417M22.99 27.212s-.01-1.97 1.851-1.97c1.612 0 2.326 1.611 4.54 1.116" stroke="#070505" stroke-width="1.5" stroke-linecap="round" stroke-linejoin="round"/><path d="M22.99 27.212s-.01 1.563 1.851 1.563c1.41 0 2.767-.26 4.54-2.417" stroke="#070505" stroke-width="1.5" stroke-linecap="round" stroke-linejoin="round"/><path d="M20.665 32.584c-.488.153-1.068.38-1.702.669-3.394 1.549-8.286 4.87-8.286 7.945v5.547M25.483 32.584c.487.153 1.068.38 1.702.669 3.393 1.549 8.286 4.87 8.286 7.945v5.547" stroke="#070505" stroke-width="1.5" stroke-linecap="round"/><path d="M27.185 33.253l-2.502 3.51a1.978 1.978 0 0 1-3.22 0l-2.5-3.51" stroke="#070505" stroke-width="1.5" stroke-linecap="round"/><path d="M31.606 35.862l-3.054 10.286a1.935 1.935 0 0 1-1.91 1.612h-7.136a1.936 1.936 0 0 1-1.911-1.612l-3.053-10.286" stroke="#070505" stroke-width="1.5" stroke-linecap="round"/></g></g></symbol><symbol id="fish_icon" viewBox="0 0 22 12"><g fill="none" fill-rule="evenodd"><path stroke="#393939" stroke-width="1.5" d="M15.154 5.788s.275 2.28 1.75 3.13c1.474.848 3.592-.055 3.592-.055S20.28 7.067 19.2 6.07M1 5.788S3.587 1 8.027 1c4.44 0 7.127 4.788 7.127 4.788s-2.688 4.788-7.127 4.788C3.587 10.576 1 5.788 1 5.788z" stroke-linecap="round" stroke-linejoin="round"/><path stroke="#393939" stroke-width="1.5" d="M7.066 1.655s1.13 1.61 1.13 4.133c0 2.524-1.13 4.133-1.13 4.133m8.088-4.133s.275-2.28 1.75-3.128c1.474-.85 3.592.053 3.592.053s-.274 2.28-1.75 3.13c-1.475.848-3.592-.055-3.592-.055z" stroke-linecap="round" stroke-linejoin="round"/><path fill="#393939" d="M4.195 5.498a.773.773 0 1 1 1.543.001.773.773 0 0 1-1.542-.001"/></g></symbol><symbol id="meat_icon" viewBox="0 0 25 22"><g fill="none" fill-rule="evenodd"><path stroke="#393939" stroke-width="1.33" d="M16.93 11.536l2.065.004c-.007.065-.02.128-.02.194a1.732 1.732 0 0 0 1.738 1.728 1.733 1.733 0 0 0 1.746-1.72 1.71 1.71 0 0 0-.574-1.274c.353-.314.577-.764.578-1.27a1.736 1.736 0 0 0-1.74-1.73c-.962 0-1.743.77-1.745 1.723 0 .067.013.13.02.195l-2.095-.005M5.41 4.666l5.29.01c3.318.006 6.003 2.674 5.997 5.958-.007 3.285-2.703 5.942-6.022 5.935l-5.288-.01" stroke-linecap="round" stroke-linejoin="round"/><path stroke="#393939" stroke-width="1.33" d="M9.245 10.622C9.252 7.337 7.56 4.67 5.47 4.667c-2.09-.004-3.79 2.655-3.797 5.94-.007 3.284 1.682 5.95 3.774 5.954 2.09.005 3.79-2.654 3.798-5.938z" stroke-linecap="round" stroke-linejoin="round"/><path fill="#393939" d="M5.28 10.168l-.002.89"/><path stroke="#393939" stroke-width="1.33" d="M5.28 10.168l-.002.89" stroke-linecap="round" stroke-linejoin="round"/></g></symbol><symbol id="search" viewBox="0 0 17 18"><title>search</title><path d="M6.327 12.64l-4.624 4.569a1 1 0 0 1-1.406-1.423l4.376-4.325a6.63 6.63 0 0 1-2.029-4.777C2.644 2.99 5.67 0 9.396 0s6.752 2.99 6.752 6.684-3.026 6.684-6.752 6.684a6.779 6.779 0 0 1-3.07-.729zm3.07-1.272c2.626 0 4.751-2.1 4.751-4.684S12.023 2 9.396 2 4.644 4.1 4.644 6.684c0 2.585 2.125 4.684 4.752 4.684z" fill="#393939" fill-rule="nonzero"/></symbol></svg>